<?xml version="1.0" standalone="no"?>
<!DOCTYPE svg PUBLIC "-//W3C//DTD SVG 20010904//EN"
 "http://www.w3.org/TR/2001/REC-SVG-20010904/DTD/svg10.dtd">
<svg version="1.0" xmlns="http://www.w3.org/2000/svg"
 width="1600.000000pt" height="1600.000000pt" viewBox="0 0 1600.000000 1600.000000"
 preserveAspectRatio="xMidYMid meet">
<metadata>
Created by potrace 1.14, written by Peter Selinger 2001-2017
</metadata>
<g transform="translate(0.000000,1600.000000) scale(0.100000,-0.100000)"
fill="#000000" stroke="none">
<path d="M6855 15359 c-71 -12 -110 -20 -120 -23 -5 -2 -23 -6 -38 -11 -66
-18 -241 -113 -302 -164 -63 -53 -186 -184 -243 -258 -47 -62 -212 -333 -212
-349 0 -2 -15 -36 -34 -76 -35 -74 -100 -227 -111 -258 -1 -3 -7 -18 -13 -33
-7 -16 -12 -31 -12 -34 0 -3 -7 -19 -15 -36 -23 -50 -251 -744 -261 -793 -1
-5 -19 -64 -40 -130 -20 -65 -38 -123 -40 -129 -1 -5 -12 -40 -24 -78 -22 -66
-27 -72 -80 -82 -138 -28 -498 -127 -650 -180 -136 -47 -374 -146 -378 -157
-2 -4 -9 -8 -16 -8 -7 0 -60 -25 -117 -56 -464 -252 -630 -449 -587 -697 5
-29 12 -59 15 -67 3 -8 7 -17 8 -20 43 -123 181 -249 373 -337 69 -32 319
-120 367 -129 11 -2 67 -15 125 -30 154 -38 420 -88 637 -120 31 -5 33 -8 58
-92 31 -106 64 -210 75 -237 7 -17 41 -118 45 -135 1 -3 7 -18 14 -35 7 -16
23 -57 36 -90 44 -118 108 -262 176 -399 38 -76 67 -141 65 -144 -3 -2 -704
-5 -1558 -6 -854 -2 -1567 -5 -1585 -9 -213 -41 -402 -198 -467 -389 -43 -129
-42 -4 -41 -3433 l1 -3250 24 -80 c65 -219 192 -350 415 -429 l60 -21 1993 -3
1993 -2 -5 -53 c-3 -28 -8 -83 -11 -122 -23 -302 -36 -367 -95 -455 -17 -25
-38 -56 -47 -70 -30 -46 -142 -135 -224 -176 -126 -65 -189 -75 -460 -78
l-234 -3 -60 -30 c-87 -45 -142 -110 -167 -198 -42 -145 31 -304 171 -373 l56
-27 2620 0 2620 0 57 28 c122 60 183 157 182 292 0 133 -79 244 -205 291 -35
13 -87 17 -249 19 -220 3 -312 10 -345 27 -11 6 -21 11 -22 10 -2 -1 -4 -2 -5
-1 -2 0 -10 2 -18 4 -26 5 -143 64 -174 88 -47 36 -130 120 -158 157 -64 88
-93 171 -103 297 -3 37 -8 88 -10 113 -3 25 -8 79 -11 120 -3 41 -7 90 -8 108
l-3 32 1961 1 c1079 1 1973 3 1988 5 54 6 154 39 208 67 164 88 259 214 312
412 11 41 13 639 13 3315 0 1796 -3 3283 -7 3305 -15 86 -83 241 -124 282 -7
7 -21 23 -31 35 -62 77 -183 144 -334 185 -13 4 -727 8 -1587 9 -860 1 -1565
4 -1568 7 -3 2 8 26 24 53 39 68 161 335 217 479 40 101 77 211 187 549 7 22
20 40 28 41 8 1 42 5 75 9 33 3 71 8 85 11 14 3 45 8 70 11 45 6 63 9 110 19
14 2 40 7 57 10 18 3 61 12 95 19 35 8 77 17 93 19 51 8 275 66 360 94 44 14
85 26 90 28 6 1 23 7 38 13 16 7 33 12 38 12 5 0 17 4 27 10 9 5 44 21 76 35
83 35 213 124 267 182 174 186 171 429 -8 608 -198 197 -560 397 -988 545
-164 57 -440 135 -605 171 -58 12 -106 23 -108 24 -1 1 -4 11 -6 21 -2 11 -11
44 -20 74 -8 30 -18 66 -20 80 -37 188 -269 958 -331 1095 -7 17 -25 59 -40
95 -231 555 -512 892 -855 1024 -166 63 -309 76 -495 42 -72 -14 -205 -75
-297 -137 -66 -45 -110 -83 -318 -269 -19 -18 -60 -48 -89 -68 -47 -31 -65
-37 -121 -40 -64 -4 -118 12 -164 49 -73 58 -124 104 -262 235 -127 121 -314
220 -454 239 -73 11 -166 12 -215 4z m154 -651 c35 -21 125 -98 226 -193 86
-81 243 -194 329 -235 120 -58 219 -82 355 -85 63 -1 128 1 145 6 17 4 45 10
61 12 52 8 177 59 247 100 100 60 172 115 293 226 165 150 226 191 291 191
167 0 344 -190 524 -565 63 -130 165 -384 174 -432 3 -12 10 -32 17 -45 7 -13
12 -24 11 -25 -1 -2 0 -8 3 -15 53 -156 175 -586 211 -740 2 -10 6 -26 9 -35
2 -10 20 -81 40 -158 43 -170 72 -232 132 -284 44 -39 134 -81 173 -81 10 0
52 -7 92 -16 40 -9 86 -18 102 -21 15 -2 60 -13 100 -24 39 -11 81 -22 92 -24
12 -3 53 -15 90 -27 38 -12 75 -23 82 -24 8 -1 21 -6 30 -10 9 -4 19 -8 22 -9
18 -4 120 -40 145 -50 17 -6 68 -27 115 -45 95 -37 304 -136 364 -174 l40 -24
-85 -25 c-46 -14 -95 -28 -109 -30 -14 -3 -50 -12 -80 -20 -30 -9 -68 -18 -85
-21 -16 -2 -50 -9 -75 -14 -56 -13 -261 -49 -326 -57 -27 -4 -56 -8 -64 -10
-8 -2 -42 -7 -75 -11 -33 -3 -67 -8 -75 -9 -9 -2 -43 -6 -75 -10 -33 -4 -73
-9 -90 -12 -29 -4 -46 -6 -170 -18 -33 -3 -76 -8 -95 -10 -19 -3 -64 -7 -100
-10 -68 -5 -153 -13 -230 -20 -25 -2 -83 -7 -130 -10 -47 -3 -114 -8 -150 -10
-84 -6 -276 -16 -560 -30 -396 -18 -1152 -23 -1615 -10 -355 10 -373 10 -535
19 -74 4 -169 9 -210 11 -41 2 -109 6 -150 9 -41 3 -113 8 -160 11 -47 4 -101
8 -120 10 -19 2 -73 6 -120 10 -47 3 -101 8 -120 10 -19 2 -66 6 -105 10 -38
3 -81 8 -95 10 -14 2 -55 6 -92 10 -37 3 -76 8 -87 10 -11 2 -46 6 -78 10 -65
7 -84 9 -196 25 -87 13 -116 17 -167 26 -19 3 -46 8 -60 10 -14 2 -36 6 -50 8
-13 3 -42 8 -65 12 -22 3 -60 10 -85 16 -25 5 -56 12 -70 14 -14 3 -33 7 -42
10 -10 3 -29 7 -43 10 -27 5 -174 44 -245 66 l-45 14 75 44 c41 24 120 64 175
88 55 24 116 51 135 60 19 9 44 17 54 19 11 2 25 8 31 13 10 8 257 94 302 105
10 3 64 18 120 34 55 16 114 32 130 34 15 3 46 9 68 15 22 6 56 13 75 16 125
20 152 27 201 52 52 26 113 83 136 128 14 28 90 240 98 276 6 27 186 603 217
695 16 50 31 95 32 100 5 25 70 211 76 220 5 6 8 12 9 15 0 12 38 121 56 165
7 17 30 71 51 120 132 314 289 538 422 602 59 29 105 29 151 1z m-789 -3964
c34 -5 61 -9 110 -19 14 -3 43 -8 65 -11 22 -3 46 -7 54 -10 8 -3 30 -7 50
-10 20 -3 110 -23 200 -45 379 -92 571 -184 571 -273 0 -41 -48 -118 -109
-174 -42 -38 -198 -126 -246 -137 -186 -46 -313 -57 -397 -35 -71 19 -162 76
-215 134 -103 115 -183 316 -199 504 -3 37 -7 73 -10 80 -4 14 -1 14 126 -4z
m3552 -44 c-3 -46 -16 -125 -38 -219 -3 -13 -18 -59 -35 -102 -44 -113 -104
-200 -194 -277 -24 -21 -107 -59 -155 -72 -46 -13 -155 -15 -200 -5 -14 3 -43
8 -65 11 -133 18 -288 89 -379 175 -100 93 -125 167 -76 222 42 48 219 134
315 153 11 2 31 8 45 13 58 21 186 54 290 75 153 31 284 56 316 60 22 4 60 10
85 14 24 5 55 8 69 8 24 -1 25 -3 22 -56z m3561 -4480 c-1 -1713 -2 -3142 -2
-3175 l-1 -60 -1950 0 -1950 0 -2 25 c0 14 -2 30 -3 35 -1 6 -5 46 -9 90 -4
44 -9 99 -11 122 -3 23 -7 74 -10 115 -3 40 -8 96 -10 123 -2 28 -7 79 -10
115 -3 36 -8 88 -10 115 -6 55 -11 115 -20 220 -3 39 -8 88 -10 110 -3 22 -8
74 -11 115 -3 41 -7 95 -9 120 -2 25 -7 83 -10 129 -4 46 -8 92 -10 103 -2 10
-7 58 -10 106 -4 48 -8 103 -10 122 -2 19 -6 73 -10 120 -3 47 -8 96 -10 110
-2 14 -7 61 -10 105 -3 44 -8 105 -11 135 -3 30 -7 75 -9 100 -12 159 -17 218
-21 238 -2 12 -6 34 -9 48 -18 87 -112 191 -198 220 -122 41 -238 14 -328 -75
-79 -79 -99 -136 -93 -261 2 -52 6 -116 8 -141 3 -25 7 -77 10 -115 4 -38 8
-91 11 -119 3 -27 7 -75 10 -105 14 -166 17 -198 20 -235 3 -46 13 -156 20
-230 3 -27 7 -81 10 -120 3 -38 8 -95 11 -125 3 -30 7 -77 9 -105 6 -82 15
-187 21 -235 2 -25 6 -70 8 -100 4 -57 15 -190 21 -250 2 -19 7 -75 11 -125 3
-49 8 -98 10 -108 1 -10 6 -61 9 -115 4 -53 8 -108 10 -122 2 -14 7 -61 10
-105 3 -44 8 -96 10 -115 2 -19 7 -71 10 -115 3 -44 8 -98 10 -120 2 -22 7
-76 10 -120 4 -44 8 -98 11 -120 2 -22 6 -69 9 -105 8 -98 15 -180 21 -225 2
-22 6 -71 9 -110 11 -170 20 -224 59 -370 10 -35 69 -171 88 -202 15 -25 16
-33 6 -34 -17 -1 -2190 -1 -2200 0 -4 1 6 23 22 50 42 68 104 221 110 273 1 4
6 22 11 40 5 18 11 56 14 83 12 122 23 252 40 470 8 104 19 222 30 335 6 56
13 144 19 230 3 36 8 90 11 120 3 30 7 78 10 105 2 28 6 79 9 115 4 36 8 94
11 130 3 36 7 85 10 110 2 25 6 79 10 120 3 41 7 95 10 120 2 25 7 79 10 120
3 41 8 91 10 110 3 19 7 67 10 105 3 39 7 95 10 125 3 30 7 80 10 110 4 62 14
174 20 235 2 22 7 76 10 120 4 44 8 96 11 115 2 19 6 76 9 125 3 50 7 99 10
110 2 11 7 63 10 115 3 52 8 106 10 120 10 60 20 213 19 310 0 97 -3 109 -29
154 -102 176 -302 224 -465 111 -98 -68 -129 -148 -146 -381 -3 -44 -7 -97 -9
-119 -2 -22 -6 -71 -9 -110 -4 -38 -8 -88 -11 -110 -2 -22 -7 -76 -10 -120 -3
-44 -7 -98 -10 -120 -3 -22 -7 -76 -10 -120 -4 -44 -8 -91 -10 -105 -2 -14 -6
-59 -10 -100 -12 -168 -15 -201 -20 -232 -2 -18 -7 -73 -10 -123 -4 -49 -8
-103 -10 -120 -2 -16 -7 -64 -10 -105 -6 -74 -11 -141 -20 -232 -3 -26 -7 -80
-10 -120 -4 -40 -8 -91 -10 -113 -2 -22 -6 -76 -10 -120 -3 -44 -8 -93 -10
-110 -2 -16 -7 -69 -10 -118 -4 -48 -8 -95 -9 -105 -3 -16 -111 -17 -1952 -17
l-1949 0 -3 3172 -2 3172 47 3 c27 2 2456 3 5398 3 l5350 0 -2 -3115z"/>
</g>
</svg>
